<?xml version="1.0" encoding="UTF-8" standalone="no"?>
<svg
   xmlns:dc="http://purl.org/dc/elements/1.1/"
   xmlns:cc="http://creativecommons.org/ns#"
   xmlns:rdf="http://www.w3.org/1999/02/22-rdf-syntax-ns#"
   xmlns:svg="http://www.w3.org/2000/svg"
   xmlns="http://www.w3.org/2000/svg"
   xmlns:sodipodi="http://sodipodi.sourceforge.net/DTD/sodipodi-0.dtd"
   xmlns:inkscape="http://www.inkscape.org/namespaces/inkscape"
   viewBox="0 0 291 98"
   id="svg2"
   version="1.1"
   inkscape:version="0.48.0 r9654"
   width="100%"
   height="100%"
   sodipodi:docname="site_logo.svg">
  <title
     id="title3759">MXP</title>
  <metadata
     id="metadata14">
    <rdf:RDF>
      <cc:Work
         rdf:about="">
        <dc:format>image/svg+xml</dc:format>
        <dc:type
           rdf:resource="http://purl.org/dc/dcmitype/StillImage" />
        <dc:title>MXP</dc:title>
        <dc:creator>
          <cc:Agent>
            <dc:title>orynider</dc:title>
          </cc:Agent>
        </dc:creator>
        <dc:rights>
          <cc:Agent>
            <dc:title>© 2008 FlorinCB</dc:title>
          </cc:Agent>
        </dc:rights>
        <dc:publisher>
          <cc:Agent>
            <dc:title>phpbb.com</dc:title>
          </cc:Agent>
        </dc:publisher>
        <dc:identifier>orynider </dc:identifier>
        <cc:license
           rdf:resource="http://opensource.org/licenses/gpl-license.php" />
      </cc:Work>
    </rdf:RDF>
  </metadata>
  <defs
     id="defs12" />
  <sodipodi:namedview
     pagecolor="#ffffff"
     bordercolor="#666666"
     borderopacity="1"
     objecttolerance="10"
     gridtolerance="10"
     guidetolerance="10"
     inkscape:pageopacity="0"
     inkscape:pageshadow="2"
     inkscape:window-width="1152"
     inkscape:window-height="814"
     id="namedview10"
     showgrid="false"
     inkscape:zoom="1.2392593"
     inkscape:cx="49.671052"
     inkscape:cy="1.4930069"
     inkscape:window-x="-8"
     inkscape:window-y="-8"
     inkscape:window-maximized="1"
     inkscape:current-layer="g3950" />
  <g
     id="g4"
     style="fill:#ffffff;fill-rule:evenodd"
     transform="translate(0,2)">
    <g
       id="g3775"
       transform="translate(-175.74118,51.92353)">
      <path
         style="fill:#fdfdfd"
         d="m 39.900002,163.89999 0,-26 76.499998,0 76.5,0 0,26 0,26 -76.5,0 -76.499998,0 0,-26 z"
         id="path3811"
         inkscape:connector-curvature="0" />
      <g
         id="g3950"
         transform="matrix(0.99446327,0,0,1,0.17542849,-3.2277345)">
        <path
           inkscape:connector-curvature="0"
           id="path3797"
           d="m 180.16314,40.468642 c -2.99787,-3.3218 -3.33724,-6.83642 -2.73681,-28.34251 0.56174,-20.1195003 1.35794,-25.66917 4.41156,-30.748818 10.49718,-17.461956 38.25144,-15.400148 45.75254,3.39887 4.19077,10.5027477 3.83916,18.6477777 -1.24072,28.741648 -6.3322,12.58232 -11.56234,14.45609 -31.06063,11.12794 -3.30212,-0.56365 -3.95303,0.65062 -4.77857,8.9144 -1.07508,10.76196 -4.69091,13.17607 -10.34737,6.90847 z m 32.18936,-28.10972 c 4.02424,-4.0353903 5.6281,-11.1599003 4.16441,-18.4986703 -3.93461,-19.7275047 -26.0064,-15.8209337 -26.0064,4.60294 0,13.0884103 13.8562,21.9036203 21.84199,13.8957303 z m 86.33546,27.60531 c -3.47634,-4.97693 -4.2596,-37.1775403 -1.22358,-50.30316 2.60928,-11.280714 11.05427,-18.707848 22.52884,-19.813446 12.18173,-1.173758 20.25669,2.939436 25.32386,12.899391 5.01806,9.8634347 4.86392,20.1937747 -0.45911,30.770815 -6.33219,12.58232 -11.56235,14.45609 -31.06063,11.12794 -3.30212,-0.56365 -3.95301,0.65062 -4.77855,8.9144 -1.09452,10.9565 -5.32094,13.57645 -10.33083,6.40406 z m 32.17279,-27.60531 c 6.27114,-6.2884903 6.17704,-20.9683403 -0.17948,-28.011736 -4.73867,-5.250666 -12.99652,-4.423873 -17.88726,1.790946 -11.11078,14.11878967 5.74284,38.57887 18.06682,26.22079 z m -86.83037,13.00626 c -1.57693,-0.54362 -3.49907,-1.9372 -4.27142,-3.09687 -0.77236,-1.15969 -1.41747,-17.8495203 -1.43357,-37.08854 -0.0312,-37.227079 0.24633,-38.216584 8.99423,-32.072364 2.91218,2.045421 4.31366,5.313668 4.72601,11.021108 0.44181,6.115294 1.29228,7.919881 3.45328,7.327541 13.79921,-3.782445 24.62414,-0.38685 28.47331,8.931581 1.38038,3.341831 2.03934,13.2046437 1.70279,25.4868437 -0.51552,18.8127003 -0.78233,19.9981303 -4.37187,19.4237503 -6.72842,-1.07668 -8.6014,-6.00186 -8.6014,-22.6182803 0,-17.1464477 -2.21482,-21.8127907 -10.35312,-21.8127907 -8.2939,0 -10.67255,5.427971 -10.67255,24.3543607 0,17.7391403 -1.6917,22.1962003 -7.64569,20.1436603 z m 118.34261,-0.95371 c -6.38263,-4.91402 -7.48004,-10.5879 -7.48004,-38.673958 l 0,-27.965801 4.90299,-1.869276 c 2.69666,-1.028106 10.91069,-1.869274 18.25345,-1.869274 14.27173,0 23.11467,3.164493 26.48392,9.477404 2.90687,5.446591 2.38956,16.536451 -0.89906,19.273308 -3.88844,3.236067 -3.60339,7.081997 0.95571,12.8939967 6.82748,8.70376 3.29781,21.5281003 -7.72183,28.0555703 -6.35463,3.76416 -29.8859,4.22668 -34.49514,0.67803 z m 27.25294,-14.1323 c 6.56497,-5.9576703 3.78295,-12.4897103 -6.41222,-15.0556203 -8.57054,-2.15704 -13.02937,0.3862 -13.02937,7.43166 0,3.40778 1.03217,7.23101 2.29372,8.4960303 3.31259,3.3218 13.07349,2.82538 17.14787,-0.87207 z m -2.11313,-29.479441 c 4.94793,-2.655377 4.68092,-8.607849 -0.55097,-12.282535 -5.07158,-3.562097 -11.3192,-3.857023 -14.48377,-0.683693 -2.45313,2.459912 -3.13125,11.554914 -1.01944,13.672556 1.95157,1.956964 11.90774,1.518923 16.05418,-0.706328 z m 31.89069,42.274331 -5.25641,-4.15085 0,-30.57574 0,-30.575759 5.25641,-2.028785 c 2.89103,-1.115834 11.9087,-1.735603 20.03929,-1.377274 13.12202,0.578291 15.37199,1.242242 20.02651,5.909652 6.39398,6.411658 7.22928,18.085464 1.7301,24.178813 -3.41769,3.786973 -3.40346,4.033443 0.52131,9.0367927 6.02193,7.67685 5.39898,18.3689303 -1.52284,26.1372303 -5.23778,5.87835 -6.42036,6.27643 -20.54781,6.91703 -13.08479,0.59332 -15.65825,0.15218 -20.24656,-3.47111 z m 27.36344,-11.6069 c 2.38961,-1.28241 3.69719,-4.0107403 3.69719,-7.7143103 0,-4.45710003 -1.14283,-6.16585 -5.14414,-7.69136 -2.82926,-1.07866 -7.34499,-1.7042 -10.03496,-1.39009 -4.00853,0.46809 -5.00133,1.7278 -5.50337,6.98292 -0.3369,3.52646 -0.1489,7.62343 0.41787,9.1043803 1.20756,3.15559 11.21047,3.58334 16.56741,0.70846 z m 0.68617,-32.357264 c 4.22485,-4.681344 1.48969,-10.664924 -5.70251,-12.47505 -8.84586,-2.226301 -12.31211,0.198075 -12.31211,8.611338 0,7.465525 0.0703,7.537689 7.34943,7.537689 4.81564,0 8.4926,-1.266641 10.66519,-3.673977 z"
           style="fill:#b7b7b7" />
        <path
           sodipodi:nodetypes="sssssscsscsssssccssssssssscssssccsssssssssssscsscsssccccssssscssccsscssssssssscsssssssssssss"
           inkscape:connector-curvature="0"
           id="path3801"
           d="m 179.02642,39.094601 c -3.3413,-3.280198 -1.86012,-47.1148599 1.54937,-55.125627 4.25528,-9.997966 11.34683,-14.209855 23.92519,-14.209855 17.37016,0 26.53893,9.675581 26.53893,28.005929 0,21.430805 -13.44794,32.554913 -32.69975,27.049163 -4.98854,-1.426648 -7.23034,-0.199578 -7.23034,6.080702 0,3.609604 -1.92992,8.896199 -2.56275,10.515194 -0.57516,1.471406 -1.0198,2.400703 -2.5185,2.274948 -2.0349,-0.170748 -5.13061,-2.753135 -7.00215,-4.590454 z M 212.08354,10.70016 c 2.73858,-2.688505 3.78319,-6.1762713 3.76223,-12.5614528 -0.0326,-9.9023932 -0.99871,-11.9965052 -6.95498,-15.0743082 -5.72261,-2.957015 -7.6013,-2.708708 -11.97237,1.582377 -2.76536,2.714783 -3.79127,6.2031768 -3.79127,12.8916269 0,7.6896532 0.80618,9.792254 4.99474,13.0266881 6.24385,4.821571 9.15907,4.849765 13.96165,0.135106 z m 86.5712,29.281359 c -3.41949,-3.356941 -4.02166,-47.854349 -0.54943,-56.012545 4.25527,-9.997966 11.34684,-14.209855 23.92518,-14.209855 17.37018,0 26.53894,9.675581 26.53894,28.005929 0,12.746344 -4.59146,22.042088 -12.5586,26.14036 -5.34422,2.749049 -12.31829,3.048536 -20.03003,0.896464 -4.9885,-1.392113 -6.72876,-0.618211 -7.30078,8.195352 -0.52271,8.053715 -0.28436,9.878928 -4.5305,10.36607 -2.61382,0.299855 -4.19884,-2.109569 -5.49478,-3.381775 z m 30.9583,-29.281359 c 2.74009,-2.6899558 3.79129,-6.2031811 3.79129,-12.6710121 0,-11.3217159 -3.25646,-15.8636449 -11.37384,-15.8636449 -8.09223,0 -11.37381,4.538018 -11.37381,15.7285824 0,7.3054044 0.85491,9.4741814 4.99473,12.6710056 6.24386,4.821571 9.15907,4.849765 13.96163,0.135106 z m 36.18802,15.123097 c -9.71771,-2.668664 -12.43142,-9.659181 -13.16765,-33.9197393 -0.77857,-25.6565777 0.41573,-34.3181217 4.9685,-36.0332097 6.8361,-2.575266 26.56697,-3.283763 33.04043,-1.186415 3.19208,1.034208 6.39985,1.023033 8.73276,2.991154 8.04378,6.786007 10.07993,19.530258 3.4875,26.681562 -3.33,3.612298 -3.30472,3.905495 0.80799,9.36646 7.43905,9.8777768 4.43691,22.110488 -4.25836,28.70023 -7.89484,5.983123 -20.51831,6.995501 -33.61117,3.399958 z M 389.95135,4.3887462 c 0.75257,-6.4719627 -1.99487,-8.5095363 -11.52563,-8.5477418 -7.05044,-0.028249 -7.10863,0.033286 -7.10863,7.5172959 l 0,7.5457817 9.00427,-0.5672 c 8.36173,-0.526725 9.04892,-0.9511895 9.62999,-5.9481358 z m -1.95266,-25.6970292 c 1.25113,-1.228235 2.27476,-2.843286 2.27476,-3.588985 0,-3.405514 -6.54971,-7.20456 -12.42093,-7.20456 -5.27306,0 -6.67725,0.837221 -7.62559,4.546612 -0.63933,2.500642 -0.60524,5.431649 0.0758,6.513344 1.69284,2.688974 14.88792,2.490311 17.69602,-0.266411 z m 33.50684,46.159266 c -8.90423,-3.808596 -10.38005,-9.39567 -10.38005,-39.295819 0,-32.048233 -0.35668,-31.579199 24.03036,-31.600583 12.78394,-0.01116 16.43783,0.669866 20.85202,3.886668 5.70233,4.155522 10.74709,10.695961 9.77856,17.410159 -0.29413,2.039007 -3.34038,4.094039 -4.31154,6.103167 -3.03121,6.270921 -3.03366,7.056182 -0.0399,12.7397333 1.96487,3.7301402 4.39368,8.1454729 4.18112,12.4086574 -0.29575,5.9313593 -4.19431,11.5682033 -8.13826,14.6554513 -8.44523,6.610772 -25.14258,8.324765 -35.9724,3.692566 z M 447.88766,6.513009 c 3.53852,-5.54296679 -0.83024,-9.6894774 -10.89133,-10.3372225 L 430.607,-4.391409 429.3966,0.70333125 c -0.80157,3.37392275 0.60883,8.11324365 1.35298,8.84376155 2.60099,2.5533992 15.00866,0.3015308 17.13808,-3.0340838 z m -1.33171,-28.632527 c 2.0717,-5.300004 -2.09218,-9.051836 -10.04597,-9.051836 -6.93597,0 -7.41139,0.360769 -7.96996,6.048103 -0.59229,6.03058 -0.56877,6.048112 8.11595,6.048112 6.31512,0 9.03717,-0.837073 9.89998,-3.044379 z M 239.7533,21.557704 c -2.47842,-3.473698 -3.02123,-9.811649 -2.99746,-34.998816 0.0152,-16.916312 0.81878,-31.982728 1.78403,-33.480911 1.35765,-2.107238 2.96054,-2.309969 7.07961,-0.895398 4.52496,1.55395 5.46696,3.080945 6.27245,10.167797 0.80219,7.05798 1.5303,8.248227 4.73909,7.746903 24.12796,-3.76966 32.04854,5.915678 30.92184,37.8114463 -0.54558,15.4439827 -0.90547,16.7925617 -4.62056,17.3128857 -7.69234,1.077362 -10.18838,-4.108508 -10.18838,-21.1677299 0,-13.3985308 -0.57408,-16.2487721 -3.93785,-19.5509971 -2.16579,-2.126184 -5.2212,-3.382323 -6.78975,-2.791432 -1.56857,0.590912 -3.54393,1.074367 -4.38972,1.074367 -3.04111,0 -4.63118,6.810761 -5.64814,24.1924288 -0.95414,16.3077262 -1.35101,17.7233922 -5.11651,18.2502102 -2.55813,0.357899 -5.21207,-1.012527 -7.10865,-3.670754 z"
           style="fill:#aecbe4" />
        <path
           inkscape:connector-curvature="0"
           id="path3777"
           d="m 363.31359,18.793704 c -4.79328,-4.717 -4.90199,-5.40415 -4.90199,-30.9858 l 0,-26.1618 5.96804,-1.17462 c 10.30468,-2.02813 24.56288,-1.2841 30.18107,1.57494 9.31662,4.74115 10.46787,14.01296 2.72716,21.96392 l -5.04853,5.18567 6.15144,6.8946007 c 7.07128,7.92555 6.83145,13.64916 -0.89557,21.3747993 -3.71413,3.71345 -6.99808,4.75605 -16.94336,5.37924 -11.23397,0.70394 -12.7743,0.34197 -17.23826,-4.05095 z m 29.47394,-4.99482 c 4.44982,-4.3790193 4.97663,-12.7593894 1.12771,-17.9393393 -2.16394,-2.91227 -5.06649,-3.62769 -14.80074,-3.64812 l -12.10892,-0.0254 -0.58261,10.0193099 c -0.33564,5.7716901 0.37072,11.1497394 1.66616,12.6858094 3.55906,4.22015 20.04074,3.49127 24.6984,-1.09226 z m -2.33473,-29.23695 c 2.97826,-2.05284 4.24449,-4.84178 4.24449,-9.34863 0,-5.21182 -1.06249,-6.9637 -5.63447,-9.29034 -6.73908,-3.42945 -17.53344,-3.74831 -20.72039,-0.61207 -2.4081,2.36976 -3.20648,18.77066 -1.01854,20.92375 2.45791,2.41882 18.92026,1.22823 23.12891,-1.67271 z m 31.45877,35.83366 c -4.12512,-2.92905 -4.29699,-4.17104 -4.29699,-31.05005 l 0,-27.99896 6.77273,-1.25035 c 10.76731,-1.98782 27.07092,0.0235 31.39313,3.87274 5.3105,4.72942 5.32883,16.96892 0.0296,19.75983 -5.1487,2.71165 -4.80835,7.1243803 0.95489,12.3805707 6.15814,5.6163499 6.24998,13.9124003 0.23024,20.7993893 -3.99471,4.5702 -6.1308,5.27982 -17.66541,5.86838 -9.89463,0.5049 -14.17787,-0.0808 -17.4182,-2.38155 z m 29.39377,-7.63097 c 5.6512,-5.5612793 5.05199,-12.75884934 -1.51763,-18.2293793 -4.61086,-3.8395004 -20.60527,-4.5240304 -24.15208,-1.03366 -3.34443,3.2912 -2.86391,17.5863503 0.70934,21.1027393 5.00171,4.9221 19.14877,3.87938 24.96037,-1.8397 z m -1.22461,-29.03582 c 5.32987,-5.24504 4.83473,-12.09702 -1.21244,-16.778 -6.05649,-4.68821 -18.20035,-5.19604 -22.52332,-0.94186 -3.5373,3.48101 -3.99874,15.98633 -0.70934,19.22337 3.86687,3.80533 20.06263,2.80922 24.4451,-1.50351 z m 13.51919,21.7694807 c -0.0828,-1.98117 0.36843,-3.0911901 1.00305,-2.46669 0.6346,0.6245 0.70243,2.24546 0.15068,3.60215 -0.60964,1.49924 -1.06217,1.05392 -1.15381,-1.13546 z"
           style="fill:#115a25;fill-opacity:0.32608697" />
        <path
           sodipodi:nodetypes="scsssssssssssss"
           inkscape:connector-curvature="0"
           id="path3801-5"
           d="m 241.44705,19.979588 c -2.32127,-3.24667 -2.82966,-9.17039 -2.80739,-32.71142 0.0142,-15.81072 0.76685,-29.89244 1.6709,-31.292701 1.27156,-1.969518 2.77281,-2.158998 6.6307,-0.83688 4.23801,1.452389 5.12028,2.879581 5.8747,9.503261 0.75132,6.59669 1.43326,7.70915 4.43858,7.2406 22.598,-3.52329 30.01632,5.52904 28.96107,35.3402095 -0.51098,14.4346205 -0.84805,15.6950605 -4.32756,16.1813805 -7.20457,1.00695 -9.54233,-3.83999 -9.54233,-19.7842805 0,-12.52285 -0.53769,-15.1868095 -3.68815,-18.2732095 -2.02846,-1.98722 -4.89013,-3.16127 -6.35921,-2.609 -1.46911,0.55229 -3.31921,1.00416 -4.11136,1.00416 -2.84828,0 -4.33753,6.3656296 -5.29,22.6112795 -0.89364,15.2419205 -1.26534,16.5650605 -4.79208,17.0574405 -2.3959,0.33451 -4.88156,-0.94634 -6.65787,-3.43084 z"
           style="fill:#489531;fill-opacity:0.4528302" />
        <path
           sodipodi:nodetypes="ssccscsscssssscc"
           inkscape:connector-curvature="0"
           id="path3929"
           d="m 297.74306,38.326221 c -3.2466,-3.10121 -1.8074,-44.54386 1.50546,-52.11749 4.13468,-9.4524 11.02524,-13.434443 23.24711,-13.434443 42.66587,5.075955 22.84891,59.247803 -5.98622,52.050803 -4.84715,-1.3488 -7.02541,-0.18869 -7.02541,5.74888 0,3.41263 -1.87522,8.41075 -2.49012,9.94139 -0.55886,1.39112 -0.9909,2.26971 -2.44712,2.15081 -1.97723,-0.16143 -4.9852,-2.60289 -6.8037,-4.33995 z m 32.12023,-26.84499 c 2.66096,-2.5418 3.67597,-5.83925 3.6556,-11.87600001 -0.0317,-9.36203009 -0.97041,-11.34185999 -6.75787,-14.25170999 -5.56042,-2.795665 -7.38586,-2.560905 -11.63305,1.49602 -2.68698,2.56665 -3.68382,5.86468 -3.68382,12.18814999 0,7.27003001 0.78333,9.25790001 4.85318,12.31584001 6.06689,4.55846 8.89949,4.58511 13.56596,0.12773 z"
           style="fill:#65a552;fill-opacity:0.62608695" />
        <path
           style="fill:#65a557;fill-opacity:0.62608695"
           d="m 180.73768,37.519287 c -3.2466,-3.10121 -1.8074,-44.5438596 1.50546,-52.11749 4.13468,-9.4524 11.02524,-13.434443 23.24711,-13.434443 42.66587,5.075955 22.84891,59.247803 -5.98622,52.050803 -4.84715,-1.3488 -7.02541,-0.18869 -7.02541,5.74888 0,3.41263 -1.87522,8.41075 -2.49012,9.94139 -0.55886,1.39112 -0.9909,2.26971 -2.44712,2.15081 -1.97723,-0.16143 -4.9852,-2.60289 -6.8037,-4.33995 z m 32.12023,-26.84499 c 2.66096,-2.5417996 3.67597,-5.8392496 3.6556,-11.8759996 -0.0317,-9.3620304 -0.97041,-11.3418604 -6.75787,-14.2517104 -5.56042,-2.795665 -7.38586,-2.560905 -11.63305,1.49602 -2.68698,2.56665 -3.68382,5.8646804 -3.68382,12.1881504 0,7.27003 0.78333,9.2579 4.85318,12.3158396 6.06689,4.55846 8.89949,4.58511 13.56596,0.12773 z"
           id="path3931"
           inkscape:connector-curvature="0"
           sodipodi:nodetypes="ssccscsscssssscc" />
        <path
           style="fill:#ffffff;fill-rule:evenodd"
           id="path3937"
           d="m 230.06349,35.039456 1.92996,0 0,-0.976332 c 0,-0.741713 0.0908,-1.3434 0.27247,-1.805079 0.18164,-0.461679 0.42383,-0.817393 0.72657,-1.067153 0.30274,-0.249761 0.6471,-0.416265 1.03309,-0.499519 0.386,-0.08325 0.79091,-0.12488 1.21474,-0.12488 0.83254,0 1.43801,0.05298 1.81643,0.158938 l 0,2.02078 c -0.1665,-0.04541 -0.34436,-0.07947 -0.53357,-0.102174 -0.18922,-0.02271 -0.41248,-0.03406 -0.66981,-0.03406 -0.34815,0 -0.6471,0.08325 -0.89686,0.249759 -0.24977,0.166507 -0.37464,0.491948 -0.37464,0.976332 l 0,1.203386 2.20242,0 0,1.929959 -2.20242,0 0,9.80873 -2.58842,0 0,-9.80873 -1.92996,0 0,-1.929959 z m 13.29062,10.013079 c 0.57521,0 1.07472,-0.121094 1.49856,-0.363287 0.42384,-0.242192 0.77198,-0.560064 1.04445,-0.953626 0.27247,-0.393562 0.47303,-0.836313 0.60169,-1.328266 0.12867,-0.491952 0.193,-0.99525 0.193,-1.509908 0,-0.499521 -0.0643,-0.999035 -0.193,-1.498556 -0.12866,-0.499522 -0.32922,-0.942272 -0.60169,-1.328266 -0.27247,-0.385994 -0.62061,-0.700082 -1.04445,-0.942274 -0.42384,-0.242192 -0.92335,-0.363286 -1.49856,-0.363286 -0.5752,0 -1.07471,0.121094 -1.49855,0.363286 -0.42384,0.242192 -0.77198,0.55628 -1.04445,0.942274 -0.27247,0.385994 -0.47303,0.828744 -0.60169,1.328266 -0.12867,0.499521 -0.193,0.999035 -0.193,1.498556 0,0.514658 0.0643,1.017956 0.193,1.509908 0.12866,0.491953 0.32922,0.934704 0.60169,1.328266 0.27247,0.393562 0.62061,0.711434 1.04445,0.953626 0.42384,0.242193 0.92335,0.363287 1.49855,0.363287 z m 0,2.043485 c -0.93849,0 -1.7748,-0.155152 -2.50894,-0.46546 -0.73415,-0.310309 -1.35475,-0.737923 -1.86184,-1.282855 -0.50709,-0.544932 -0.89308,-1.195814 -1.15798,-1.952664 -0.2649,-0.75685 -0.39734,-1.589373 -0.39734,-2.497593 0,-0.893084 0.13244,-1.718038 0.39734,-2.474888 0.2649,-0.756851 0.65089,-1.407732 1.15798,-1.952664 0.50709,-0.544932 1.12769,-0.972546 1.86184,-1.282855 0.73414,-0.310309 1.57045,-0.465461 2.50894,-0.465461 0.9385,0 1.77481,0.155152 2.50895,0.465461 0.73415,0.310309 1.35475,0.737923 1.86184,1.282855 0.50709,0.544932 0.89308,1.195813 1.15798,1.952664 0.2649,0.75685 0.39734,1.581804 0.39734,2.474888 0,0.90822 -0.13244,1.740743 -0.39734,2.497593 -0.2649,0.75685 -0.65089,1.407732 -1.15798,1.952664 -0.50709,0.544932 -1.12769,0.972546 -1.86184,1.282855 -0.73414,0.310308 -1.57045,0.46546 -2.50895,0.46546 z m 7.6824,-12.056564 2.42947,0 0,2.270539 0.0454,0 c 0.0757,-0.317877 0.22327,-0.628181 0.44276,-0.930921 0.21948,-0.30274 0.48438,-0.578986 0.79469,-0.828747 0.31031,-0.24976 0.65467,-0.450323 1.03309,-0.601693 0.37843,-0.15137 0.76442,-0.227054 1.15798,-0.227054 0.30274,0 0.51087,0.0076 0.62439,0.02271 0.11353,0.01514 0.23084,0.03027 0.35194,0.04541 l 0,2.497593 c -0.18164,-0.03027 -0.36707,-0.05676 -0.55628,-0.07947 -0.18922,-0.02271 -0.37464,-0.03406 -0.55629,-0.03406 -0.43897,0 -0.85145,0.08704 -1.23744,0.261112 -0.38599,0.174076 -0.72279,0.431401 -1.01039,0.771983 -0.2876,0.340583 -0.51465,0.760629 -0.68116,1.26015 -0.16651,0.499521 -0.24976,1.074719 -0.24976,1.72561 l 0,5.585527 -2.58841,0 0,-11.738689 z m 17.89981,11.738689 -2.543,0 0,-1.634789 -0.0454,0 c -0.31788,0.590344 -0.7909,1.063368 -1.41909,1.419087 -0.62818,0.35572 -1.26771,0.533577 -1.9186,0.533577 -1.54398,0 -2.66032,-0.382203 -3.34905,-1.146622 -0.68873,-0.764419 -1.0331,-1.918598 -1.0331,-3.462573 l 0,-7.447369 2.58842,0 0,7.19761 c 0,1.029316 0.19678,1.755882 0.59034,2.179718 0.39356,0.423836 0.94605,0.635751 1.65749,0.635751 0.54494,0 0.99904,-0.08325 1.36233,-0.249759 0.36329,-0.166508 0.65845,-0.389775 0.88551,-0.66981 0.22705,-0.280034 0.38977,-0.616828 0.48816,-1.01039 0.0984,-0.393562 0.14759,-0.817392 0.14759,-1.271502 l 0,-6.811618 2.58841,0 0,11.738689 z m 2.32392,-11.738689 2.45218,0 0,1.634788 0.0681,0 c 0.19678,-0.287603 0.4087,-0.552496 0.63575,-0.794688 0.22706,-0.242193 0.4806,-0.446539 0.76063,-0.613046 0.28004,-0.166507 0.6017,-0.298954 0.96498,-0.397344 0.36329,-0.09839 0.77955,-0.147586 1.2488,-0.147586 0.71144,0 1.37367,0.158937 1.98672,0.476814 0.61305,0.317877 1.04823,0.809822 1.30556,1.47585 0.43897,-0.60548 0.94605,-1.082288 1.52126,-1.430439 0.57521,-0.348152 1.2942,-0.522225 2.15701,-0.522225 1.24124,0 2.20621,0.302736 2.89494,0.908216 0.68873,0.60548 1.0331,1.619644 1.0331,3.042523 l 0,8.105826 -2.58842,0 0,-6.857029 c 0,-0.469248 -0.0151,-0.896861 -0.0454,-1.282855 -0.0303,-0.385994 -0.11731,-0.719003 -0.26111,-0.999037 -0.1438,-0.280035 -0.3595,-0.495734 -0.64711,-0.647104 -0.2876,-0.15137 -0.68116,-0.227054 -1.18068,-0.227054 -0.87794,0 -1.51369,0.272462 -1.90725,0.817394 -0.39356,0.544932 -0.59034,1.316908 -0.59034,2.31595 l 0,6.879735 -2.58841,0 0,-7.538191 c 0,-0.817398 -0.14759,-1.434222 -0.44276,-1.85049 -0.29517,-0.416267 -0.83631,-0.624398 -1.62343,-0.624398 -0.33302,0 -0.65467,0.06812 -0.96498,0.204349 -0.31031,0.136232 -0.58277,0.333011 -0.81739,0.59034 -0.23463,0.257329 -0.42384,0.575201 -0.56764,0.953626 -0.1438,0.378425 -0.2157,0.809824 -0.2157,1.294208 l 0,6.970556 -2.58842,0 0,-11.738689 z m 51.37434,7.571253 c 0.0757,0.75685 0.36328,1.286638 0.8628,1.589378 0.49953,0.30274 1.09743,0.454107 1.79373,0.454107 0.24219,0 0.51844,-0.01892 0.82875,-0.05676 0.31031,-0.03784 0.60169,-0.109742 0.87416,-0.215701 0.27246,-0.105959 0.49573,-0.261111 0.6698,-0.465461 0.17408,-0.204349 0.25355,-0.473027 0.23841,-0.806041 -0.0151,-0.333014 -0.13623,-0.605476 -0.36329,-0.817395 -0.22705,-0.211918 -0.51843,-0.382206 -0.87415,-0.510871 -0.35572,-0.128664 -0.76063,-0.238406 -1.21474,-0.329228 -0.45411,-0.09082 -0.91578,-0.189211 -1.38503,-0.29517 -0.48438,-0.105959 -0.94984,-0.234622 -1.39638,-0.385992 -0.44654,-0.15137 -0.84767,-0.355716 -1.20339,-0.613046 -0.35572,-0.257329 -0.63953,-0.586554 -0.85145,-0.987684 -0.21192,-0.401131 -0.31788,-0.89686 -0.31788,-1.487204 0,-0.635754 0.15516,-1.169325 0.46546,-1.60073 0.31031,-0.431404 0.70387,-0.77955 1.18069,-1.044448 0.47681,-0.264897 1.0066,-0.450323 1.58937,-0.556282 0.58278,-0.105959 1.13905,-0.158938 1.66885,-0.158938 0.60548,0 1.18446,0.06433 1.73696,0.192996 0.5525,0.128665 1.05202,0.336795 1.49856,0.624398 0.44654,0.287604 0.81739,0.662239 1.11256,1.123917 0.29517,0.461679 0.4806,1.017956 0.55628,1.668847 l -2.70194,0 c -0.12109,-0.620617 -0.40491,-1.036879 -0.85145,-1.248797 -0.44654,-0.211918 -0.95741,-0.317875 -1.53261,-0.317875 -0.18165,0 -0.39735,0.01514 -0.64711,0.04541 -0.24976,0.03028 -0.48438,0.08704 -0.70386,0.170291 -0.21949,0.08325 -0.40492,0.204348 -0.55629,0.363286 -0.15137,0.158939 -0.22705,0.36707 -0.22705,0.624399 0,0.317877 0.10974,0.575202 0.32923,0.771983 0.21948,0.196781 0.50708,0.359501 0.8628,0.488166 0.35572,0.128664 0.76063,0.238406 1.21474,0.329228 0.45411,0.09082 0.92335,0.189211 1.40774,0.29517 0.46924,0.105959 0.93091,0.234622 1.38502,0.385992 0.45411,0.15137 0.85902,0.355716 1.21474,0.613046 0.35572,0.257329 0.64332,0.582769 0.86281,0.976332 0.21948,0.393562 0.32923,0.877939 0.32923,1.453145 0,0.696302 -0.15894,1.286636 -0.47682,1.77102 -0.31787,0.484385 -0.73035,0.877941 -1.23744,1.180681 -0.50709,0.30274 -1.07094,0.522223 -1.69155,0.658457 -0.62062,0.136232 -1.23366,0.204348 -1.83914,0.204348 -0.74171,0 -1.42665,-0.08325 -2.05484,-0.249759 -0.62818,-0.166507 -1.17311,-0.420048 -1.63479,-0.760631 -0.46167,-0.340583 -0.82496,-0.764412 -1.08986,-1.271502 -0.26489,-0.50709 -0.40491,-1.108777 -0.42005,-1.805079 l 2.58842,0 z m 15.23014,4.086971 c -0.93849,0 -1.7748,-0.155152 -2.50895,-0.465461 -0.73414,-0.310308 -1.35475,-0.737922 -1.86184,-1.282854 -0.50709,-0.544932 -0.89308,-1.195814 -1.15797,-1.952664 -0.2649,-0.756851 -0.39735,-1.589373 -0.39735,-2.497594 0,-0.893083 0.13245,-1.718037 0.39735,-2.474888 0.26489,-0.75685 0.65088,-1.407731 1.15797,-1.952664 0.50709,-0.544932 1.1277,-0.972546 1.86184,-1.282854 0.73415,-0.310309 1.57046,-0.465461 2.50895,-0.465461 0.9385,0 1.7748,0.155152 2.50895,0.465461 0.73414,0.310308 1.35475,0.737922 1.86184,1.282854 0.50709,0.544933 0.89308,1.195814 1.15797,1.952664 0.2649,0.756851 0.39735,1.581805 0.39735,2.474888 0,0.908221 -0.13245,1.740743 -0.39735,2.497594 -0.26489,0.75685 -0.65088,1.407732 -1.15797,1.952664 -0.50709,0.544932 -1.1277,0.972546 -1.86184,1.282854 -0.73415,0.310309 -1.57045,0.465461 -2.50895,0.465461 z m 0,-2.043486 c 0.57521,0 1.07472,-0.121094 1.49856,-0.363286 0.42383,-0.242192 0.77198,-0.560064 1.04444,-0.953626 0.27247,-0.393563 0.47303,-0.836313 0.6017,-1.328266 0.12866,-0.491953 0.19299,-0.99525 0.19299,-1.509909 0,-0.499521 -0.0643,-0.999034 -0.19299,-1.498556 -0.12867,-0.499521 -0.32923,-0.942271 -0.6017,-1.328265 -0.27246,-0.385994 -0.62061,-0.700082 -1.04444,-0.942274 -0.42384,-0.242192 -0.92335,-0.363286 -1.49856,-0.363286 -0.57521,0 -1.07472,0.121094 -1.49856,0.363286 -0.42383,0.242192 -0.77198,0.55628 -1.04444,0.942274 -0.27247,0.385994 -0.47303,0.828744 -0.6017,1.328265 -0.12866,0.499522 -0.19299,0.999035 -0.19299,1.498556 0,0.514659 0.0643,1.017956 0.19299,1.509909 0.12867,0.491953 0.32923,0.934703 0.6017,1.328266 0.27246,0.393562 0.62061,0.711434 1.04444,0.953626 0.42384,0.242192 0.92335,0.363286 1.49856,0.363286 z m 6.94267,-10.013078 1.92996,0 0,-0.976332 c 0,-0.741713 0.0908,-1.3434 0.27247,-1.805079 0.18164,-0.461679 0.42383,-0.817393 0.72657,-1.067154 0.30274,-0.24976 0.6471,-0.416265 1.03309,-0.499518 0.386,-0.08325 0.79091,-0.12488 1.21474,-0.12488 0.83254,0 1.43801,0.05298 1.81643,0.158938 l 0,2.02078 c -0.1665,-0.04541 -0.34436,-0.07947 -0.53357,-0.102174 -0.18921,-0.02271 -0.41248,-0.03406 -0.66981,-0.03406 -0.34815,0 -0.6471,0.08325 -0.89686,0.24976 -0.24977,0.166507 -0.37464,0.491948 -0.37464,0.976332 l 0,1.203386 2.20242,0 0,1.929958 -2.20242,0 0,9.80873 -2.58842,0 0,-9.80873 -1.92996,0 0,-1.929958 z m 7.14702,0 1.95267,0 0,-3.519336 2.58841,0 0,3.519336 2.33866,0 0,1.929958 -2.33866,0 0,6.266689 c 0,0.272466 0.0114,0.507086 0.0341,0.703867 0.0227,0.196781 0.0757,0.363286 0.15894,0.499519 0.0832,0.136233 0.20813,0.238406 0.37464,0.306523 0.1665,0.06812 0.39356,0.102174 0.68116,0.102174 0.18164,0 0.36328,-0.0038 0.54493,-0.01135 0.18164,-0.0076 0.36329,-0.03406 0.54493,-0.07947 l 0,1.998075 c -0.2876,0.03027 -0.56764,0.06055 -0.8401,0.09082 -0.27247,0.03027 -0.5525,0.04541 -0.8401,0.04541 -0.68117,0 -1.22987,-0.06433 -1.64614,-0.192996 -0.41627,-0.128665 -0.74171,-0.317875 -0.97633,-0.567635 -0.23463,-0.249761 -0.39356,-0.563849 -0.47682,-0.942274 -0.0832,-0.378425 -0.13245,-0.809823 -0.14758,-1.294208 l 0,-6.925145 -1.95267,0 0,-1.929958 z m 7.69195,0 2.74736,0 2.29324,8.764282 0.0454,0 2.20243,-8.764282 2.61112,0 2.1116,8.764282 0.0454,0 2.38406,-8.764282 2.63383,0 -3.67827,11.738688 -2.65653,0 -2.17972,-8.718871 -0.0454,0 -2.15702,8.718871 -2.72464,0 -3.63287,-11.738688 z m 28.58092,9.127568 c 0,0.317877 0.0416,0.544929 0.12488,0.681162 0.0833,0.136233 0.24597,0.204348 0.48816,0.204348 l 0.27247,0 c 0.10596,0 0.22705,-0.01514 0.36328,-0.04541 l 0,1.793726 c -0.0908,0.03027 -0.20813,0.06433 -0.35193,0.102174 -0.1438,0.03784 -0.29138,0.0719 -0.44276,0.102174 -0.15136,0.03027 -0.30273,0.05298 -0.4541,0.06812 -0.15137,0.01514 -0.28004,0.02271 -0.38599,0.02271 -0.5298,0 -0.96877,-0.105957 -1.31692,-0.317876 -0.34815,-0.211918 -0.5752,-0.582769 -0.68116,-1.112564 -0.51466,0.499521 -1.14662,0.862804 -1.8959,1.089859 -0.74928,0.227055 -1.47206,0.340581 -2.16837,0.340581 -0.52979,0 -1.03687,-0.0719 -1.52126,-0.215701 -0.48438,-0.143802 -0.91199,-0.355717 -1.28285,-0.635751 -0.37086,-0.280035 -0.66603,-0.635749 -0.88551,-1.067154 -0.21949,-0.431404 -0.32923,-0.934702 -0.32923,-1.509908 0,-0.726577 0.13245,-1.316911 0.39734,-1.771021 0.2649,-0.45411 0.61305,-0.809825 1.04445,-1.067154 0.43141,-0.257329 0.91578,-0.442754 1.45315,-0.556282 0.53736,-0.113528 1.0785,-0.200564 1.62343,-0.261112 0.46925,-0.09082 0.91579,-0.155153 1.33962,-0.192996 0.42384,-0.03784 0.79847,-0.102174 1.12392,-0.192996 0.32544,-0.09082 0.58277,-0.230837 0.77198,-0.42005 0.18921,-0.189212 0.28382,-0.473027 0.28382,-0.851452 0,-0.333014 -0.0795,-0.605476 -0.23841,-0.817394 -0.15894,-0.211918 -0.35571,-0.374638 -0.59034,-0.488166 -0.23462,-0.113527 -0.49573,-0.189211 -0.78333,-0.227054 -0.28761,-0.03784 -0.56007,-0.05676 -0.8174,-0.05676 -0.72657,0 -1.32448,0.151367 -1.79372,0.454107 -0.46925,0.302741 -0.73414,0.771981 -0.79469,1.407735 l -2.58842,0 c 0.0454,-0.75685 0.22705,-1.385027 0.54493,-1.884548 0.31788,-0.499521 0.72279,-0.900646 1.21474,-1.203386 0.49195,-0.30274 1.04823,-0.514655 1.66885,-0.635751 0.62061,-0.121096 1.25636,-0.181643 1.90725,-0.181643 0.57521,0 1.14284,0.06055 1.7029,0.181643 0.56007,0.121096 1.06337,0.317875 1.50991,0.590341 0.44655,0.272466 0.80604,0.624396 1.07851,1.0558 0.27247,0.431405 0.4087,0.957408 0.4087,1.578025 l 0,6.039635 z m -2.58842,-3.269577 c -0.39356,0.257329 -0.87794,0.412481 -1.45314,0.465461 -0.57521,0.05298 -1.15041,0.132448 -1.72561,0.238407 -0.27247,0.04541 -0.53736,0.109742 -0.79469,0.192995 -0.25733,0.08325 -0.48438,0.19678 -0.68116,0.340581 -0.19678,0.143802 -0.35194,0.333012 -0.46546,0.567635 -0.11353,0.234624 -0.17029,0.518438 -0.17029,0.851453 0,0.287603 0.0832,0.529791 0.24975,0.726572 0.16651,0.196781 0.36707,0.351933 0.6017,0.465461 0.23462,0.113527 0.49195,0.192995 0.77198,0.238406 0.28004,0.04541 0.53358,0.06812 0.76063,0.06812 0.2876,0 0.59791,-0.03784 0.93092,-0.113526 0.33302,-0.07569 0.6471,-0.204348 0.94228,-0.385992 0.29517,-0.181644 0.54114,-0.41248 0.73792,-0.692515 0.19678,-0.280034 0.29517,-0.624396 0.29517,-1.033095 l 0,-1.929959 z m 5.39871,-5.857991 2.42947,0 0,2.270539 0.0454,0 c 0.0757,-0.317877 0.22326,-0.628181 0.44275,-0.930921 0.21949,-0.30274 0.48438,-0.578986 0.79469,-0.828747 0.31031,-0.24976 0.65467,-0.450323 1.03309,-0.601693 0.37843,-0.15137 0.76442,-0.227054 1.15798,-0.227054 0.30274,0 0.51087,0.0076 0.6244,0.02271 0.11353,0.01514 0.23084,0.03027 0.35193,0.04541 l 0,2.497594 c -0.18164,-0.03027 -0.36707,-0.05676 -0.55628,-0.07947 -0.18921,-0.02271 -0.37464,-0.03406 -0.55628,-0.03406 -0.43898,0 -0.85145,0.08704 -1.23745,0.261112 -0.38599,0.174075 -0.72278,0.431401 -1.01039,0.771983 -0.2876,0.340583 -0.51465,0.760628 -0.68116,1.26015 -0.16651,0.499521 -0.24976,1.074718 -0.24976,1.725609 l 0,5.585527 -2.58841,0 0,-11.738688 z m 9.62191,6.539153 c 0,0.45411 0.0643,0.893077 0.19299,1.316913 0.12867,0.423836 0.32166,0.794687 0.57899,1.112564 0.25733,0.317878 0.58277,0.571419 0.97633,0.760631 0.39356,0.189213 0.8628,0.283817 1.40774,0.283817 0.75685,0 1.3661,-0.16272 1.82778,-0.488165 0.46168,-0.325446 0.80604,-0.813607 1.0331,-1.464498 l 2.45218,0 c -0.13623,0.635754 -0.37086,1.203383 -0.70387,1.702904 -0.33301,0.499521 -0.73414,0.919567 -1.20339,1.26015 -0.46924,0.340582 -0.99525,0.597907 -1.57802,0.771983 -0.58277,0.174076 -1.19203,0.261112 -1.82778,0.261112 -0.92336,0 -1.74075,-0.151368 -2.45219,-0.454108 -0.71144,-0.30274 -1.31312,-0.72657 -1.80508,-1.271502 -0.49195,-0.544932 -0.8628,-1.195814 -1.11256,-1.952664 -0.24976,-0.75685 -0.37464,-1.589373 -0.37464,-2.497593 0,-0.832536 0.13245,-1.623432 0.39735,-2.372714 0.26489,-0.749282 0.64331,-1.407731 1.13527,-1.975369 0.49195,-0.567638 1.08607,-1.017957 1.78237,-1.350971 0.6963,-0.333014 1.48341,-0.499519 2.36136,-0.499519 0.92336,0 1.7521,0.192994 2.48624,0.578988 0.73415,0.385993 1.3434,0.89686 1.82778,1.532614 0.48439,0.635754 0.83632,1.366104 1.05581,2.19107 0.21948,0.824967 0.27624,1.676411 0.17029,2.554357 l -8.62805,0 z m 6.03963,-1.702904 c -0.0303,-0.408699 -0.11731,-0.802256 -0.26111,-1.180681 -0.1438,-0.378425 -0.34058,-0.70765 -0.59034,-0.987684 -0.24976,-0.280035 -0.5525,-0.507087 -0.90822,-0.681162 -0.35572,-0.174076 -0.75306,-0.261112 -1.19203,-0.261112 -0.45411,0 -0.86659,0.07947 -1.23744,0.238406 -0.37086,0.158939 -0.68873,0.378422 -0.95363,0.658457 -0.2649,0.280034 -0.47681,0.609259 -0.63575,0.987684 -0.15894,0.378425 -0.24598,0.787118 -0.26111,1.226092 l 6.03963,0 z"
           inkscape:connector-curvature="0" />
        <path
           style="fill:#ffffff;fill-rule:evenodd"
           id="path3939"
           d="m 462.13748,30.723836 -0.92127,0 0,-5.162578 2.12704,0 c 0.67741,0 1.18771,0.116389 1.53092,0.349159 0.34323,0.232778 0.51482,0.611029 0.51482,1.134771 0,0.465548 -0.13998,0.806395 -0.41998,1.022543 -0.27999,0.216147 -0.62773,0.344998 -1.04321,0.386562 l 1.57159,2.269543 -1.0432,0 -1.44964,-2.207188 -0.86707,0 0,2.207188 z m 1.02965,-2.930447 c 0.17161,0 0.33644,-0.0065 0.4945,-0.01866 0.15805,-0.0125 0.29579,-0.04776 0.41321,-0.105999 0.11741,-0.0582 0.21225,-0.139251 0.28451,-0.24316 0.0723,-0.103918 0.10838,-0.25148 0.10838,-0.442685 0,-0.157953 -0.0384,-0.282653 -0.11515,-0.374101 -0.0768,-0.09141 -0.17387,-0.162113 -0.2913,-0.211996 -0.1174,-0.0499 -0.24837,-0.08106 -0.39287,-0.09352 -0.14452,-0.0125 -0.28451,-0.01866 -0.42,-0.01866 l -1.11093,0 0,1.508863 1.02965,0 z m 4.93147,0.261871 c 0,0.698317 -0.13323,1.334279 -0.39968,1.907905 -0.26644,0.573626 -0.62772,1.064106 -1.08383,1.471459 -0.45611,0.407353 -0.98448,0.723259 -1.58511,0.947717 -0.60064,0.224468 -1.23061,0.336697 -1.88995,0.336697 -0.7316,0 -1.40222,-0.11847 -2.01188,-0.355399 -0.60966,-0.236929 -1.13351,-0.563226 -1.57157,-0.978889 -0.43805,-0.415674 -0.78127,-0.908234 -1.02964,-1.4777 -0.2484,-0.569466 -0.37257,-1.186726 -0.37257,-1.85179 0,-0.698326 0.13322,-1.334288 0.39966,-1.907914 0.26645,-0.573617 0.62772,-1.064106 1.08385,-1.471459 0.45611,-0.407353 0.98674,-0.723259 1.59188,-0.947717 0.60514,-0.224459 1.24189,-0.336688 1.91027,-0.336688 0.65934,0 1.28931,0.112229 1.88995,0.336688 0.60063,0.224458 1.129,0.540364 1.58511,0.947717 0.45611,0.407353 0.81739,0.897842 1.08383,1.471459 0.26645,0.573626 0.39968,1.209588 0.39968,1.907914 z m -1.08384,0 c 0,-0.565315 -0.0993,-1.084888 -0.29806,-1.558756 -0.19871,-0.473858 -0.47417,-0.881211 -0.82643,-1.222059 -0.35224,-0.340847 -0.7632,-0.604789 -1.23286,-0.791844 -0.46967,-0.187045 -0.97546,-0.280573 -1.51738,-0.280573 -0.55095,0 -1.06352,0.09353 -1.53771,0.280573 -0.47417,0.187055 -0.88738,0.450997 -1.23962,0.791844 -0.35226,0.340848 -0.62773,0.748201 -0.82643,1.222059 -0.19871,0.473868 -0.29806,0.993441 -0.29806,1.558756 0,0.532053 0.0903,1.030844 0.27095,1.496392 0.18064,0.465557 0.44032,0.8729 0.77901,1.222068 0.33871,0.349158 0.74739,0.625571 1.2261,0.829248 0.4787,0.203676 1.0206,0.305514 1.62576,0.305514 0.54192,0 1.04771,-0.09352 1.51738,-0.280572 0.46966,-0.187055 0.88062,-0.450997 1.23286,-0.791845 0.35226,-0.340847 0.62772,-0.74612 0.82643,-1.215828 0.1987,-0.469698 0.29806,-0.99136 0.29806,-1.564977 z M 233.96221,-3.8324066 c 0,4.35986729 -0.57206,8.3675352 -1.71621,12.0231172 -1.14415,3.6555804 -2.80672,6.8248234 -4.98776,9.5078194 -2.18104,2.682988 -4.89836,4.762286 -8.15203,6.237933 -3.25368,1.475648 -6.99001,2.213457 -11.20905,2.213457 -3.21792,0 -6.09615,-0.75458 -8.63473,-2.263769 -2.53857,-1.50918 -4.52294,-3.437559 -5.95313,-5.785174 l 0,23.945616 -4.50507,0 c -1.28717,0 -2.53857,-0.217994 -3.75424,-0.653983 -1.21565,-0.435988 -2.28827,-1.05642 -3.21789,-1.861314 -0.92963,-0.804902 -1.68046,-1.777468 -2.25255,-2.917743 -0.57206,-1.140275 -0.8581,-2.448213 -0.8581,-3.92386 l 0,-32.79946291 c 0,-4.49401619 0.55419,-8.61906219 1.66259,-12.37524909 1.10839,-3.756197 2.84248,-6.975743 5.20229,-9.65874 2.35981,-2.682996 5.36315,-4.762286 9.01013,-6.237933 3.64698,-1.475647 8.00899,-2.213466 13.08616,-2.213466 3.86152,0 7.40119,0.75459 10.61911,2.26377 3.21792,1.509189 5.98887,3.504633 8.31293,5.986406 2.32406,2.481773 4.12965,5.332414 5.41681,8.552006 1.28717,3.219592 1.93074,6.5397538 1.93074,9.9605694 z m -14.80237,3.52141333 c 0,-6.43918453 -1.12626,-11.10082573 -3.3788,-13.98504573 -2.25256,-2.88422 -5.70283,-4.326306 -10.35094,-4.326306 -4.00454,0 -7.06152,1.458857 -9.17106,4.37661 -2.10951,2.917761 -3.16427,6.7242057 -3.16427,11.4194452 0,5.4330678 1.30503,9.6251884 3.91513,12.5764834 2.61008,2.9512944 6.06037,4.4269144 10.35093,4.4269144 3.50397,0 6.34643,-1.324709 8.52747,-3.974164 2.18104,-2.6494554 3.27154,-6.15407 3.27154,-10.51393727 z M 285.10418,24.94258 c -3.00339,0 -5.38103,-0.771351 -7.13303,-2.314073 -1.75198,-1.542722 -2.62795,-3.789702 -2.62795,-6.740996 l 0,-22.1345978 c 0,-2.2134755 -0.3039,-4.1083122 -0.91174,-5.6845752 -0.60783,-1.576254 -1.43018,-2.850659 -2.46706,-3.823244 -1.03689,-0.972584 -2.25254,-1.693632 -3.64697,-2.163153 -1.39443,-0.46953 -2.87824,-0.704286 -4.45144,-0.704286 -1.14415,0 -2.32403,0.217994 -3.5397,0.653973 -1.21566,0.435989 -2.34191,1.157037 -3.3788,2.163154 -1.03689,1.006126 -1.87711,2.314063 -2.5207,3.923869 -0.64358,1.609796 -0.96537,3.62201 -0.96537,6.0367089 l 0,30.7872201 -4.7196,0 c -3.43246,0 -5.93525,-0.804884 -7.50846,-2.414689 -1.5732,-1.609797 -2.35979,-3.823235 -2.35979,-6.64038 l 0,-63.385453 4.50507,0 c 3.43246,0 5.98888,0.804887 7.66934,2.414684 1.68049,1.609797 2.52071,3.689085 2.52071,6.237933 l 0,15.494226 c 0.50056,-0.804903 1.19777,-1.626558 2.09164,-2.464993 0.89387,-0.838435 1.8771,-1.609787 2.94974,-2.314073 1.07264,-0.704286 2.25254,-1.291186 3.53971,-1.760707 1.28717,-0.469521 2.61006,-0.704286 3.96875,-0.704286 7.5085,0 13.33641,2.028986 17.48396,6.087023 4.14756,4.058027 6.2213,9.943761 6.2213,17.6573688 l 0,31.7933462 -4.71961,0 z m 67.01699,-28.7749866 c 0,4.35986729 -0.57205,8.3675352 -1.7162,12.0231172 -1.14416,3.6555804 -2.80673,6.8248234 -4.98776,9.5078194 -2.18104,2.682988 -4.89836,4.762286 -8.15204,6.237933 -3.25368,1.475648 -6.99,2.213457 -11.20905,2.213457 -3.21793,0 -6.09614,-0.75458 -8.63472,-2.263769 -2.53858,-1.50918 -4.52295,-3.437559 -5.95314,-5.785174 l 0,23.945616 -4.50507,0 c -1.28717,0 -2.53856,-0.217994 -3.75423,-0.653983 -1.21565,-0.435988 -2.28827,-1.05642 -3.2179,-1.861314 -0.92963,-0.804902 -1.68046,-1.777468 -2.25254,-2.917743 -0.57207,-1.140275 -0.85811,-2.448213 -0.85811,-3.92386 l 0,-32.79946291 c 0,-4.49401619 0.5542,-8.61906219 1.66259,-12.37524909 1.10839,-3.756197 2.84247,-6.975743 5.20229,-9.65874 2.35982,-2.682996 5.36316,-4.762286 9.01014,-6.237933 3.64698,-1.475647 8.00899,-2.213466 13.08616,-2.213466 3.86151,0 7.40119,0.75459 10.6191,2.26377 3.21793,1.509189 5.98888,3.504633 8.31293,5.986406 2.32407,2.481773 4.12965,5.332414 5.41682,8.552006 1.28717,3.219592 1.93073,6.5397538 1.93073,9.9605694 z m -14.80237,3.52141333 c 0,-6.43918453 -1.12625,-11.10082573 -3.3788,-13.98504573 -2.25255,-2.88422 -5.70283,-4.326306 -10.35094,-4.326306 -4.00453,0 -7.06152,1.458857 -9.17105,4.37661 -2.10952,2.917761 -3.16427,6.7242057 -3.16427,11.4194452 0,5.4330678 1.30503,9.6251884 3.91513,12.5764834 2.61008,2.9512944 6.06036,4.4269144 10.35093,4.4269144 3.50396,0 6.34642,-1.324709 8.52745,-3.974164 2.18104,-2.6494554 3.27155,-6.15407 3.27155,-10.51393727 z m 72.70196,3.92385997 c 0,3.4878999 -0.67933,6.5732973 -2.038,9.2562933 -1.35869,2.682997 -3.20002,4.946739 -5.52408,6.7913 -2.32406,1.844552 -5.00563,3.236335 -8.04478,4.175387 -3.03915,0.939052 -6.23914,1.408564 -9.60009,1.408564 l -7.93751,0 c -13.6583,0 -20.48735,-5.466517 -20.48735,-16.3997274 l 0,-50.0040816 c 0.85811,-0.268298 2.07376,-0.586899 3.64697,-0.955813 1.5732,-0.36891 3.27153,-0.721047 5.09501,-1.056422 1.82349,-0.335374 3.68272,-0.60367 5.57771,-0.804895 1.895,-0.201224 3.59333,-0.301836 5.09503,-0.301836 l 8.90288,0 c 3.50396,0 6.72185,0.419212 9.65372,1.257649 2.93189,0.838439 5.47044,2.045769 7.61571,3.622024 2.1453,1.576263 3.80786,3.487871 4.98777,5.734879 1.1799,2.247008 1.76985,4.779048 1.76985,7.596193 0,3.823263 -1.03687,6.958972 -3.11065,9.407204 -2.07378,2.448231 -4.9341,4.175386 -8.58109,5.181512 1.85925,0.469521 3.57545,1.240873 5.14866,2.3140729 1.5732,1.0731913 2.94974,2.297293 4.12964,3.6723238 1.17991,1.3750403 2.09164,2.8674305 2.73523,4.4772266 0.64358,1.60980549 0.96537,3.1524992 0.96537,4.6281464 z M 394.03848,-24.860279 c 0,-1.475647 -0.33966,-2.733281 -1.01901,-3.77294 -0.67934,-1.039668 -1.55531,-1.861323 -2.62795,-2.464993 -1.07263,-0.603679 -2.28828,-1.039658 -3.64696,-1.307956 -1.35869,-0.268298 -2.71734,-0.402447 -4.07602,-0.402447 l -5.47044,0 c -0.92964,0 -1.96649,0.08385 -3.11065,0.251527 -1.14415,0.167691 -2.21678,0.318611 -3.21791,0.452759 l 0,15.594834 11.26268,0 c 3.28944,0 6.09614,-0.653974 8.42019,-1.961931 2.32406,-1.307965 3.48607,-3.437558 3.48607,-6.388853 z m 1.17991,28.8755924 c 0,-3.75618781 -1.019,-6.3385401 -3.05702,-7.747113 -2.03802,-1.4085728 -5.20227,-2.1128405 -9.49283,-2.1128405 l -11.69173,0 0,14.1862697 c 0,1.20734 0.60781,2.2302194 1.82347,3.0686544 1.21566,0.838435 2.75309,1.257653 4.61235,1.257653 l 6.00676,0 c 4.00452,0 6.97212,-0.788122 8.90287,-2.364377 1.93076,-1.5762634 2.89613,-3.6723244 2.89613,-6.2882466 z m 72.80922,-0.4024467 c 0,3.4878999 -0.67933,6.5732973 -2.03802,9.2562933 -1.35867,2.682997 -3.2,4.946739 -5.52407,6.7913 -2.32405,1.844552 -5.00562,3.236335 -8.04477,4.175387 -3.03915,0.939052 -6.23915,1.408564 -9.60009,1.408564 l -7.93751,0 c -13.6583,0 -20.48735,-5.466517 -20.48735,-16.3997274 l 0,-50.0040816 c 0.85811,-0.268298 2.07374,-0.586899 3.64696,-0.955813 1.57321,-0.36891 3.27153,-0.721047 5.09502,-1.056422 1.8235,-0.335374 3.6827,-0.60367 5.57771,-0.804895 1.895,-0.201224 3.59332,-0.301836 5.09502,-0.301836 l 8.90288,0 c 3.50397,0 6.72184,0.419212 9.65374,1.257649 2.93188,0.838439 5.47043,2.045769 7.61571,3.622024 2.14528,1.576263 3.80785,3.487871 4.98776,5.734879 1.1799,2.247008 1.76984,4.779048 1.76984,7.596193 0,3.823263 -1.03688,6.958972 -3.11065,9.407204 -2.07377,2.448231 -4.9341,4.175386 -8.58107,5.181512 1.85924,0.469521 3.57545,1.240873 5.14865,2.3140729 1.57321,1.0731913 2.94974,2.297293 4.12963,3.6723238 1.17992,1.3750403 2.09164,2.8674305 2.73524,4.4772266 0.64358,1.60980549 0.96537,3.1524992 0.96537,4.6281464 z M 452.04533,-24.860279 c 0,-1.475647 -0.33967,-2.733281 -1.01901,-3.77294 -0.67933,-1.039668 -1.55532,-1.861323 -2.62795,-2.464993 -1.07265,-0.603679 -2.28828,-1.039658 -3.64697,-1.307956 -1.35868,-0.268298 -2.71734,-0.402447 -4.07602,-0.402447 l -5.47044,0 c -0.92963,0 -1.9665,0.08385 -3.11065,0.251527 -1.14416,0.167691 -2.21678,0.318611 -3.21791,0.452759 l 0,15.594834 11.26269,0 c 3.28943,0 6.09613,-0.653974 8.42019,-1.961931 2.32406,-1.307965 3.48607,-3.437558 3.48607,-6.388853 z m 1.1799,28.8755924 c 0,-3.75618781 -1.019,-6.3385401 -3.05702,-7.747113 -2.03802,-1.4085728 -5.20226,-2.1128405 -9.49283,-2.1128405 l -11.69174,0 0,14.1862697 c 0,1.20734 0.60782,2.2302194 1.82349,3.0686544 1.21567,0.838435 2.75309,1.257653 4.61233,1.257653 l 6.00677,0 c 4.00453,0 6.97213,-0.788122 8.90288,-2.364377 1.93076,-1.5762634 2.89612,-3.6723244 2.89612,-6.2882466 z"
           inkscape:connector-curvature="0" />
      </g>
    </g>
  </g>
</svg>
